<?xml version="1.0" encoding="utf-8"?>
<!-- Generator: Adobe Illustrator 17.0.0, SVG Export Plug-In . SVG Version: 6.00 Build 0)  -->
<!DOCTYPE svg PUBLIC "-//W3C//DTD SVG 1.1//EN" "http://www.w3.org/Graphics/SVG/1.1/DTD/svg11.dtd">
<svg version="1.1" id="图层_1" xmlns="http://www.w3.org/2000/svg" xmlns:xlink="http://www.w3.org/1999/xlink" x="0px" y="0px"
	 width="120px" height="120px" viewBox="0 0 120 120" enable-background="new 0 0 120 120" xml:space="preserve">
<path fill="#FFFFFF" d="M98.176,9.491H21.824C10.329,9.491,1,18.818,1,30.315V71.96c0,11.496,9.329,20.824,20.824,20.824h6.941
	v20.824l20.824-20.824h48.588c11.498,0,20.824-9.327,20.824-20.824V30.315C119,18.818,109.674,9.491,98.176,9.491z M39.612,58.513
	c-4.121,4.121-10.629,4.121-14.75,0s-4.121-10.629,0-14.75s10.629-4.121,14.75,0S43.733,54.392,39.612,58.513z M67.377,58.513
	c-4.121,4.121-10.629,4.121-14.75,0s-4.121-10.629,0-14.75s10.629-4.121,14.75,0S71.498,54.392,67.377,58.513z M95.141,58.513
	c-4.121,4.121-10.629,4.121-14.75,0s-4.121-10.629,0-14.75s10.629-4.121,14.75,0S99.263,54.392,95.141,58.513z"/>
</svg>
