<?xml version="1.0" encoding="utf-8"?>
<!-- Generator: Adobe Illustrator 17.0.0, SVG Export Plug-In . SVG Version: 6.00 Build 0)  -->
<!DOCTYPE svg PUBLIC "-//W3C//DTD SVG 1.1//EN" "http://www.w3.org/Graphics/SVG/1.1/DTD/svg11.dtd">
<svg version="1.1" id="图层_1" xmlns="http://www.w3.org/2000/svg" xmlns:xlink="http://www.w3.org/1999/xlink" x="0px" y="0px"
	 width="120px" height="120px" viewBox="0 0 120 120" enable-background="new 0 0 120 120" xml:space="preserve">
<g>
	<path fill="#FFFFFF" d="M115.709,74.774c-2.007,3.684-4.523,6.994-7.599,9.867c-3.764,3.515-7.985,6.352-12.578,8.669
		c-5.762,2.907-11.838,4.888-18.133,6.2c-2.556,0.534-5.16,0.841-7.747,1.224c-5.205,0.771-10.45,0.743-15.682,0.54
		c-2.8-0.107-5.59-0.547-8.377-0.897c-4.004-0.502-7.945-1.35-11.738-2.711c-3.044-1.092-6.04-2.344-8.977-3.696
		c-5.572-2.567-9.904-6.766-13.959-11.209c-3.917-4.294-6.985-9.164-8.64-14.812c-0.932-3.179-1.474-6.434-1.215-9.742
		c0.475-6.076,2.62-11.569,6.192-16.491c3.936-5.424,8.905-9.716,14.584-13.24c5.746-3.568,11.919-6.136,18.481-7.657
		c3.755-0.87,7.604-1.455,11.445-1.793c4.201-0.37,8.446-0.516,12.66-0.367c3.712,0.13,7.407,0.77,11.101,1.244
		c4.252,0.544,8.365,1.698,12.4,3.104c6.049,2.109,11.709,4.949,16.778,8.943c2.659,2.096,5.074,4.418,7.159,7.055
		c3.317,4.193,5.655,8.909,7.006,14.097c0.137,0.523,0.008,0.759-0.64,0.83c-1.533,0.169-2.373-0.276-2.98-1.853
		c-1.661-4.311-4.467-7.925-7.744-11.119c-4.127-4.024-8.916-7.118-14.187-9.474c-4.633-2.072-9.451-3.568-14.435-4.426
		c-3.138-0.539-6.333-0.827-9.517-0.987c-3.23-0.162-6.479-0.119-9.715-0.004c-4.829,0.172-9.448,1.405-13.939,3.128
		c-4.59,1.761-8.977,3.887-13.066,6.676c-4.127,2.816-7.724,6.121-10.621,10.183c-2.601,3.65-4.342,7.679-4.905,12.135
		c-0.692,5.456,0.522,10.558,3.354,15.25c2.829,4.688,6.76,8.291,11.323,11.257c3.879,2.524,8.058,4.383,12.442,5.821
		c4.265,1.399,8.626,2.371,13.097,2.752c3.281,0.28,6.579,0.577,9.864,0.542c3.791-0.04,7.604-0.211,11.324-1.087
		c3.72-0.878,7.485-1.637,11.119-2.796c4.515-1.44,8.727-3.603,12.654-6.296c3.398-2.331,6.394-5.083,8.935-8.316
		c2.014-2.563,3.689-5.338,4.794-8.42c0.312-0.868,0.746-1.314,1.71-1.129c0.367,0.07,0.759,0.011,1.263,0.011
		C118.364,69.012,117.237,71.977,115.709,74.774z"/>
	<path fill="#FFFFFF" d="M62.229,52.593c1.773,2.672,4.298,4.514,7.01,6.113c2.112,1.246,4.4,2.221,6.027,4.174
		c2.502,3.004,3.485,6.418,2.689,10.251c-1.395,6.711-5.736,10.477-12.292,11.706c-3.065,0.575-6.212,0.778-9.333,0.971
		c-2.471,0.152-4.965,0.137-7.439,0.008c-4.536-0.237-9.067-0.613-13.61-0.932c0-2.656,0-5.03,0-7.429
		c1.589,0.322,3.12,0.688,4.67,0.932c1.926,0.306,3.862,0.577,5.805,0.743c1.8,0.154,3.616,0.271,5.417,0.185
		c2.56-0.122,4.979-0.847,7.029-2.469c2.269-1.793,2.654-4.815,1.125-7.714c-1.433-2.723-3.502-4.885-5.85-6.804
		c-2.131-1.742-4.397-3.327-6.443-5.164c-2.166-1.944-3.964-4.216-4.066-7.336c-0.064-2.011,0.701-3.755,1.959-5.301
		c2.32-2.847,5.372-4.646,8.686-6.06c3.209-1.369,6.595-2.082,10.039-2.471c3.488-0.394,6.988-0.803,10.491-0.905
		c3.028-0.087,6.068,0.245,9.188,0.397c0.115,1.828,0.22,3.49,0.331,5.27c-2.021,0.129-3.976,0.252-5.934,0.379
		c-3.78,0.248-7.574,0.508-11.127,1.938c-1.315,0.53-2.58,1.323-3.679,2.223C60.442,47.327,60.627,50.176,62.229,52.593z"/>
	<path fill="#FFFFFF" d="M80.715,76.813c0.489-2.82,1.011-5.635,1.509-8.453c0.728-4.121,1.455-8.244,2.167-12.369
		c0.692-4.003,1.357-8.008,2.048-12.011c0.432-2.512,0.873-5.022,1.362-7.523c0.051-0.259,0.456-0.637,0.701-0.64
		c3.497-0.042,6.994-0.03,10.635-0.03c-2.483,15.889-4.952,31.679-7.43,47.517c-3.997,0-7.997,0-12.068,0
		C79.997,81.133,80.34,78.97,80.715,76.813z"/>
</g>
</svg>
