<?xml version="1.0" encoding="utf-8"?>
<!-- Generator: Adobe Illustrator 17.0.0, SVG Export Plug-In . SVG Version: 6.00 Build 0)  -->
<!DOCTYPE svg PUBLIC "-//W3C//DTD SVG 1.1//EN" "http://www.w3.org/Graphics/SVG/1.1/DTD/svg11.dtd">
<svg version="1.1" id="图层_1" xmlns="http://www.w3.org/2000/svg" xmlns:xlink="http://www.w3.org/1999/xlink" x="0px" y="0px"
	 width="120px" height="120px" viewBox="0 0 120 120" enable-background="new 0 0 120 120" xml:space="preserve">
<path fill="#FFFFFF" d="M74.333,82.761c-0.423-4.685-0.261-7.954-0.261-12.233c2.123-1.112,5.922-8.209,6.563-14.202
	c1.668-0.136,4.296-1.762,5.068-8.19c0.414-3.448-1.234-5.389-2.239-6.002c2.713-8.161,8.351-33.413-10.425-36.024
	C71.107,2.717,66.158,1,59.728,1c-25.726,0.471-28.83,19.426-23.192,41.134c-1.002,0.613-2.653,2.554-2.239,6.002
	c0.772,6.427,3.399,8.053,5.068,8.19c0.638,5.993,4.591,13.09,6.717,14.202c0,4.279,0.159,7.548-0.264,12.233
	C40.727,96.447,6.377,92.605,4.791,119h110.418C113.626,92.605,79.424,96.447,74.333,82.761z"/>
</svg>
