<?xml version="1.0" encoding="utf-8"?>
<!-- Generator: Adobe Illustrator 17.0.0, SVG Export Plug-In . SVG Version: 6.00 Build 0)  -->
<!DOCTYPE svg PUBLIC "-//W3C//DTD SVG 1.1//EN" "http://www.w3.org/Graphics/SVG/1.1/DTD/svg11.dtd">
<svg version="1.1" id="图层_1" xmlns="http://www.w3.org/2000/svg" xmlns:xlink="http://www.w3.org/1999/xlink" x="0px" y="0px"
	 width="120px" height="120px" viewBox="0 0 120 120" enable-background="new 0 0 120 120" xml:space="preserve">
<g>
	<path fill="#FFFFFF" d="M1,102.143"/>
	<path fill="#FFFFFF" d="M119,41.041c0-8.174-6.584-14.75-14.75-14.75h-2.107v84.283h2.107c8.166,0,14.75-6.588,14.75-14.75V41.041z
		"/>
	<path fill="#FFFFFF" d="M15.75,26.291C7.586,26.291,1,32.866,1,41.041v54.783c0,8.162,6.586,14.75,14.75,14.75h2.109V26.291H15.75z
		"/>
	<path fill="#FFFFFF" d="M85.287,26.291V15.756c0-3.429-2.896-6.331-6.321-6.331H41.037c-3.423,0-6.32,2.902-6.32,6.331v10.534
		H24.18v84.284h71.642V26.291H85.287z M43.145,17.859h33.714v8.432H43.145V17.859z M85.287,74.744c0,1.328-0.79,2.114-2.107,2.114
		H68.43v14.75c0,1.315-0.79,2.101-2.108,2.101H53.68c-1.317,0-2.108-0.786-2.108-2.101v-14.75h-14.75
		c-1.317,0-2.105-0.787-2.105-2.114V62.109c0-1.316,0.789-2.114,2.105-2.114h14.75v-14.75c0-1.316,0.791-2.102,2.108-2.102h12.642
		c1.318,0,2.108,0.786,2.108,2.102v14.75h14.75c1.317,0,2.107,0.799,2.107,2.114V74.744z"/>
	<path fill="#FFFFFF" d="M119,102.143"/>
</g>
</svg>
