<?xml version="1.0" encoding="utf-8"?>
<!-- Generator: Adobe Illustrator 17.0.0, SVG Export Plug-In . SVG Version: 6.00 Build 0)  -->
<!DOCTYPE svg PUBLIC "-//W3C//DTD SVG 1.1//EN" "http://www.w3.org/Graphics/SVG/1.1/DTD/svg11.dtd">
<svg version="1.1" id="图层_1" xmlns="http://www.w3.org/2000/svg" xmlns:xlink="http://www.w3.org/1999/xlink" x="0px" y="0px"
	 width="120px" height="120px" viewBox="0 0 120 120" enable-background="new 0 0 120 120" xml:space="preserve">
<g>
	<path fill="#FFFFFF" d="M37.62,58.221H82.38V23.253c0-6.104-2.193-11.285-6.611-15.64C71.285,3.196,66.104,1,59.873,1
		S48.46,3.193,44.105,7.612c-4.291,4.355-6.485,9.538-6.485,15.641V58.221z"/>
	<path fill="#FFFFFF" d="M37.62,68.013c0,6.23,2.162,11.443,6.485,15.767c4.324,4.323,9.536,6.485,15.767,6.485
		s11.443-2.162,15.895-6.485c4.45-4.324,6.612-9.538,6.612-15.767v-5.85H37.62V68.013z"/>
	<path fill="#FFFFFF" d="M63.687,98.275c7.503-0.89,13.86-4.197,19.074-9.918c5.214-5.722,7.757-12.336,7.757-20.091v-6.104h-4.069
		v6.104c0,7.248-2.638,13.51-7.883,18.692c-5.181,5.119-11.443,7.629-18.692,7.629s-13.542-2.479-18.692-7.629
		c-5.15-5.15-7.631-11.443-7.631-18.692v-6.104h-4.069v6.104c0,7.629,2.512,14.269,7.502,19.964
		c4.928,5.622,11.19,8.9,18.564,10.045v12.207c-5.721,0.381-10.426,1.526-14.368,3.178c-3.942,1.653-5.85,3.433-5.85,5.212
		c0,0.127,8.266,0.127,24.923,0.127s25.05,0,25.05-0.127c0-1.907-2.162-3.687-6.359-5.34c-4.195-1.653-9.281-2.671-15.259-3.052
		C63.687,110.481,63.687,98.275,63.687,98.275z"/>
</g>
</svg>
