<?xml version="1.0" encoding="utf-8"?>
<!-- Generator: Adobe Illustrator 17.0.0, SVG Export Plug-In . SVG Version: 6.00 Build 0)  -->
<!DOCTYPE svg PUBLIC "-//W3C//DTD SVG 1.1//EN" "http://www.w3.org/Graphics/SVG/1.1/DTD/svg11.dtd">
<svg version="1.1" id="图层_1" xmlns="http://www.w3.org/2000/svg" xmlns:xlink="http://www.w3.org/1999/xlink" x="0px" y="0px"
	 width="120px" height="120px" viewBox="0 0 120 120" enable-background="new 0 0 120 120" xml:space="preserve">
<g>
	<path fill="#FFFFFF" d="M86.042,24.509C105.402,30.961,119,49.399,119,70.601c0,13.368-4.61,24.891-14.059,34.341
		C95.491,114.39,84.198,119,70.832,119c-15.67,0-29.729-7.606-38.717-19.82l42.866-24.661L86.042,24.509z"/>
	<path fill="#FFFFFF" d="M42.716,4.457C48.939,2.152,55.161,1,61.384,1c5.531,0,11.062,0.923,16.594,2.766L65.765,58.387
		L42.716,4.457z"/>
	<path fill="#FFFFFF" d="M34.879,17.594l23.969,54.39L11.371,99.18C4.457,89.731,1,79.128,1,67.374
		C1,45.021,14.598,25.661,34.879,17.594z"/>
</g>
</svg>
